<svg version="1.1" id="Layer_1" xmlns="http://www.w3.org/2000/svg" x="0" y="0" viewBox="0 0 20 20" xml:space="preserve"><style/><path d="M17.8 4.9c-2.7-.6-5.2-2-7.2-4.2l-.3-.3c-.1-.1-.2-.1-.3-.1h0c-.1 0-.2 0-.3.1l-.5.5c-1.9 2-4.2 3.4-6.7 4h-.3c-.2.1-.4.2-.4.4-.1 6.2 3.6 10.7 5.3 12.4 1 1 2.3 2.1 2.9 2.1 0 0 0 0 0 0s0 0 0 0c.7 0 2-1.2 3-2.1 1.6-1.7 5.3-6.2 5.2-12.3 0-.3-.2-.4-.4-.5z" fill="none" stroke="#000" stroke-width=".5" stroke-miterlimit="10"/><path d="M-180-38.5V-40c0-1.1-.9-2-2-2s-2 .9-2 2v1.5c-.6 0-1 .5-1 1v2.5c0 .6.5 1 1 1h4c.6 0 1-.5 1-1v-2.5c0-.6-.4-1-1-1zm-1.7 2.4v.8c0 .1-.1.3-.3.3-.1 0-.3-.1-.3-.3v-.8c-.1-.1-.3-.2-.3-.4 0-.3.2-.5.5-.5s.5.2.5.5c.1.2 0 .4-.1.4zm.7-2.4h-2V-40c0-.6.5-1 1-1 .6 0 1 .5 1 1v1.5z" transform="translate(192 48)"/><g id="O9PIQy.tif_1_"><circle cx="15.2" cy="14.8" r="3.2" fill="#fff" stroke="#000" stroke-width=".5" stroke-miterlimit="10"/><path d="M14.7 16.3c-.1 0-.2 0-.2-.1l-.8-1c-.1-.1-.1-.3 0-.4.1-.1.3-.1.4 0l.6.8 1.9-1.8c.1-.1.3-.1.4 0 .1.1.1.3 0 .4l-2.1 2c-.1 0-.1.1-.2.1z"/></g></svg>