<svg version="1.1" id="Layer_1" xmlns="http://www.w3.org/2000/svg" x="0" y="0" viewBox="0 0 20 20" xml:space="preserve"><style/><path d="M15.4 8.8V5.2c0-2.7-2.2-4.9-4.9-4.9S5.6 2.5 5.6 5.2v3.6c-1.3 0-2.4 1.1-2.4 2.4v6.1c0 1.3 1.1 2.4 2.4 2.4h9.7c1.3 0 2.4-1.1 2.4-2.4v-6.1c.2-1.3-.9-2.4-2.3-2.4zM11.5 13v2c0 .3-.3.6-.6.6s-.6-.3-.6-.6v-2c-.4-.2-.6-.6-.6-1 0-.7.5-1.2 1.2-1.2s1.2.5 1.2 1.2c0 .4-.3.8-.6 1zM13 8.8H8.1V5.2c0-1.3 1.1-2.4 2.4-2.4 1.3 0 2.4 1.1 2.4 2.4v3.6z" fill="none" stroke="#000" stroke-width=".5" stroke-miterlimit="10"/><text transform="translate(6.961 18.25)" font-size="1.873" font-family="Gotham-Bold">Clavesol</text></svg>