<svg version="1.1" id="Layer_1" xmlns="http://www.w3.org/2000/svg" x="0" y="0" viewBox="0 0 20 20" xml:space="preserve"><style/><g id="_x34_J8dBn.tif_1_"><path d="M17.9 4.4c-.3-.2-.5-.2-.8-.2H2.7c-.2 0-.4 0-.6.2 0 0 0 .1.1.1C4.6 6.8 6.9 9 9.3 11.3c.4.4 1 .4 1.4 0 2.3-2.2 4.7-4.4 7-6.6.1-.2.2-.3.2-.3zM7.6 10.9c-1.9 1.8-3.7 3.5-5.6 5.3.2.2.5.2.7.2h14.4c.2 0 .4 0 .6-.2-1.8-1.8-3.7-3.5-5.5-5.3-.5.5-1 .9-1.4 1.4-.6.6-1.2.6-1.8 0-.4-.5-.9-.9-1.4-1.4zM1.5 5.1v10.3C3.3 13.7 5.1 12 7 10.2 5.1 8.5 3.3 6.8 1.5 5.1zm17 0c-1.8 1.7-3.6 3.4-5.4 5.2.9.9 1.8 1.7 2.7 2.6.9.9 1.8 1.7 2.7 2.6V5.1z" fill="#fff"/><path d="M17.9 4.4c-.1.1-.1.1-.2.1-2.3 2.2-4.7 4.4-7 6.6-.4.4-1 .4-1.4 0-2.4-2.2-4.7-4.4-7.1-6.7l-.1-.1c.2-.1.4-.2.6-.2h14.4c.3.1.6.1.8.3z"/><path d="M7.6 10.9c.5.5 1 .9 1.5 1.4.6.6 1.2.5 1.8 0 .5-.4.9-.9 1.4-1.4 1.8 1.7 3.7 3.5 5.5 5.3-.2.1-.4.2-.6.2H2.8c-.2 0-.5 0-.7-.2 1.8-1.8 3.7-3.6 5.5-5.3zM1.5 5.1C3.3 6.8 5.1 8.5 7 10.2c-1.8 1.7-3.6 3.4-5.4 5.2v-10c-.1-.1-.1-.2-.1-.3zm17 0c.1.2.1 10.1 0 10.3-.9-.9-1.8-1.7-2.7-2.6-.9-.8-1.8-1.7-2.8-2.5 1.8-1.8 3.7-3.5 5.5-5.2z"/></g></svg>